<svg xmlns="http://www.w3.org/2000/svg" viewBox="0 0 114.5 55.05"><title>Gazprom logo</title><path d="M485.18,494.42a32.3,32.3,0,0,0-4.49-9.94,34.61,34.61,0,0,0-4.16,8.69,31.48,31.48,0,0,0-1,12.53,34.64,34.64,0,0,0,2.12,8,28.11,28.11,0,0,0,3.09,5.56,30.13,30.13,0,0,0,5.11-13,29.42,29.42,0,0,0-.64-11.83M480.68,518a14,14,0,0,1-1.55-6.32,13.24,13.24,0,0,1,1.57-6.26,14.28,14.28,0,0,1,1.5,6,13.51,13.51,0,0,1-1.52,6.59m4.15-14.93a27.75,27.75,0,0,1-.57,5.23,29.93,29.93,0,0,0-3.6-15.48,32.15,32.15,0,0,0-2.93,8,37.64,37.64,0,0,0-.68,7.53,37.19,37.19,0,0,1-.49-7.29,32.18,32.18,0,0,1,1.06-6.61,35.64,35.64,0,0,1,3-7.27,32.64,32.64,0,0,1,3.08,7.17,31.85,31.85,0,0,1,1.1,8.71" transform="translate(-454.75 -484.48)" style="fill:#1b86c0"/><path d="M482.66,520.48h-8.87v6l0,0a5.35,5.35,0,1,1,7.57,7.57l0,0h0l0,0a10.69,10.69,0,1,1-7.53-18.28V501.44a19,19,0,1,0,13.9,32.06v-13Z" transform="translate(-454.75 -484.48)" style="fill:#1b86c0"/><path d="M498.93,536.12c0,1.33-.16,3.4-2.83,3.4h-3.15c-2.67,0-2.83-2.07-2.83-3.4V523.88c0-1.33.16-3.4,2.83-3.4h3.15c2.67,0,2.83,2.07,2.83,3.4v2.69h-3.81v-3.1a.61.61,0,0,0-.6-.63.59.59,0,0,0-.6.63v13a.58.58,0,0,0,.6.62.61.61,0,0,0,.6-.62v-4.17h-.57v-2.1h4.38Z" transform="translate(-454.75 -484.48)" style="fill:#1b86c0"/><path d="M504.67,532.37l.65-9.52h.22l.65,9.52Zm-4.22,7.15h3.73l.35-5.06h1.79l.35,5.06h3.73l-2-19h-6Z" transform="translate(-454.75 -484.48)" style="fill:#1b86c0"/><polygon points="57.08 52.65 60.72 38.38 57.46 38.38 57.46 36 64.64 36 64.64 38.37 60.99 52.6 64.85 52.6 64.85 55.05 57.08 55.05 57.08 52.65" style="fill:#1b86c0"/><path d="M525.21,530.67v-7.83h.49c.41,0,.71.35.71,1v5.93c0,.6-.3,1-.71,1Zm-3.81,8.85h3.81V533h2.18c2.67,0,2.83-2.07,2.83-3.4v-5.77c0-1.33-.16-3.4-2.83-3.4h-6Z" transform="translate(-454.75 -484.48)" style="fill:#1b86c0"/><path d="M536,530.1v-7.26h.49c.41,0,.71.35.71,1v5.36c0,.6-.3,1-.71,1Zm5.49,9.42-1.88-7.43a2.25,2.25,0,0,0,1.39-2.31v-5.9c0-1.33-.16-3.4-2.83-3.4h-6v19H536v-7h.27l1.31,7Z" transform="translate(-454.75 -484.48)" style="fill:#1b86c0"/><path d="M548.54,536.46a.61.61,0,0,1-.6.63.59.59,0,0,1-.6-.63v-13a.59.59,0,0,1,.6-.63.61.61,0,0,1,.6.63Zm-5-.33c0,1.33.16,3.4,2.83,3.4h3.16c2.67,0,2.83-2.07,2.83-3.4V523.88c0-1.33-.16-3.4-2.83-3.4h-3.16c-2.66,0-2.83,2.07-2.83,3.4Z" transform="translate(-454.75 -484.48)" style="fill:#1b86c0"/><polygon points="109.55 36.01 114.5 36.01 114.5 55.05 110.69 55.05 110.69 43.1 110.56 43.1 108.6 55.05 105.55 55.05 103.59 43.1 103.45 43.1 103.45 55.05 99.65 55.05 99.65 36.01 104.6 36.01 107.07 49.39 109.55 36.01" style="fill:#1b86c0"/></svg>