<?xml version="1.0" encoding="utf-8"?>
<!-- Svg Vector Icons : http://www.onlinewebfonts.com/icon -->
<!DOCTYPE svg PUBLIC "-//W3C//DTD SVG 1.1//EN" "http://www.w3.org/Graphics/SVG/1.1/DTD/svg11.dtd">
<svg version="1.1" xmlns="http://www.w3.org/2000/svg" xmlns:xlink="http://www.w3.org/1999/xlink" x="0px" y="0px" viewBox="0 0 1000 1000" enable-background="new 0 0 1000 1000" xml:space="preserve">
<metadata> Svg Vector Icons : http://www.onlinewebfonts.com/icon </metadata>
<g><g transform="matrix(1 0 0 -1 0 1920)"><path d="M112.1,930C84,930,60,940,40,960c-20,20-30,44-30,72.1v775.8c0,28,10,52.1,30,72.1c20,20,44,30,72.1,30h775.8c28,0,52.1-10,72.1-30s30-44,30-72.1v-775.8c0-28-10-52.1-30-72.1s-44-30-72.1-30H112.1z M275.4,1598c20.7,0,38.3,7.3,52.9,21.8c14.6,14.6,21.8,32.1,21.8,52.7c0,20.6-7.3,38.2-21.8,52.9c-14.6,14.7-32.2,22.1-52.9,22.1c-20.7,0-38.3-7.4-52.9-22.1c-14.6-14.7-21.8-32.3-21.8-52.9c0-20.6,7.3-38.1,21.8-52.7C237.1,1605.3,254.7,1598,275.4,1598z M418.3,1134.2h122.5v225c0,13.9,1.4,24.1,4.1,30.6c0.3,1.1,0.8,2.4,1.6,4.1c1.9,4.9,3.4,8.5,4.5,10.8c1.1,2.3,2.7,5.4,4.7,9.4c2,3.9,4.2,6.9,6.5,9c2.3,2,5,4.2,8.2,6.5c3.1,2.3,6.9,3.9,11.2,4.9s9.1,1.4,14.3,1.4c22,0,38.8-7.7,50.2-23.1c11.4-15.4,17.2-36.3,17.2-62.7v-216h122.5v271.5c0,13.9-0.2,26.1-0.6,36.8c-0.4,10.6-1.4,20.4-2.9,29.4s-2.9,16.7-4.1,23.3c-1.2,6.5-3.5,12.4-6.9,17.6c-3.4,5.2-6.5,9.4-9.2,12.7c-2.7,3.3-6.9,6.1-12.7,8.6c-5.7,2.5-10.8,4.3-15.1,5.5s-10.8,2.2-19.2,2.9c-8.4,0.7-15.9,1.1-22.5,1.2c-6.5,0.1-15.5,0.2-27,0.2c-18.2,0-34.8-1.6-49.6-4.9c-14.8-3.3-26.8-7.4-35.9-12.5c-9.1-5-16.7-10.8-22.9-17.4s-10.4-12.8-12.9-18.8s-3.7-11.7-3.7-17.2v69.4H418.3c0.5-10.6,0.8-51.2,0.8-121.7L418.3,1134.2z M214.2,1134.2h122.5v408.3H214.2V1134.2z"/></g></g>
</svg>