<?xml version="1.0" encoding="utf-8"?>
<!-- Svg Vector Icons : http://www.onlinewebfonts.com/icon -->
<!DOCTYPE svg PUBLIC "-//W3C//DTD SVG 1.1//EN" "http://www.w3.org/Graphics/SVG/1.1/DTD/svg11.dtd">
<svg version="1.1" xmlns="http://www.w3.org/2000/svg" xmlns:xlink="http://www.w3.org/1999/xlink" x="0px" y="0px" viewBox="0 0 1000 1000" enable-background="new 0 0 1000 1000" xml:space="preserve">
<metadata> Svg Vector Icons : http://www.onlinewebfonts.com/icon </metadata>
<g><path d="M782.5,500.6c0,154.8-125.5,280.8-280.3,280.8c-154.8,0-280.3-126.3-280.3-281.1c0-51.1,13.7-96.1,37.6-140.9l-249.5,0v527.7C10,945.2,58.7,990,116.8,990h770.8c58.1,0,102.4-44.8,102.4-102.9V359.4H744.9C768.7,404.2,782.5,449.6,782.5,500.6z"/><path d="M502.2,711.9c115.9,0,210.2-94.3,210.2-210.2c0-115.9-94.3-210.2-210.2-210.2c-115.9,0-210.2,94.3-210.2,210.2C292,617.6,386.3,711.9,502.2,711.9z"/><path d="M887.6,10H116.8C58.7,10,10,58.2,10,116.3V290h306.9c49.4-43.7,114.2-70.1,185.3-70.1c71.1,0,135.9,26.4,185.3,70.1H990l0-173.7C990,58.2,945.6,10,887.6,10z M920.6,184.4c0,19.4-15.7,35-35,35h-69.9c-19.4,0-35-15.7-35-35v-69.9c0-19.4,15.7-35,35-35h69.9c19.3,0,35,15.7,35,35V184.4z"/></g>
</svg>