<?xml version="1.0" encoding="utf-8"?>
<!-- Uploaded to SVGRepo https://www.svgrepo.com -->
<!DOCTYPE svg PUBLIC "-//W3C//DTD SVG 1.1//EN" "http://www.w3.org/Graphics/SVG/1.1/DTD/svg11.dtd">
<svg width="1000px" height="1000px" viewBox="0 0 1000 1000" version="1.1" xmlns="http://www.w3.org/2000/svg" xmlns:xlink="http://www.w3.org/1999/xlink" x="0px" y="0px" enable-background="new 0 0 1000 1000" xml:space="preserve">
<metadata> Svg Vector Icons : http://www.onlinewebfonts.com/icon </metadata>
<g><g transform="translate(0.000000,511.000000) scale(0.100000,-0.100000)"><path d="M8385.3,4982.2c-341.1-83.7-694.4-430.9-753.6-741.4c-8.2-44.9-28.6-77.6-57.2-89.9c-22.5-10.2-1109-355.4-2412-765.9c-1303-410.5-2659.1-837.3-3012.4-949.7c-353.3-112.3-706.6-232.8-786.3-271.6C1055.4,2016.7,749,1706.3,567.2,1355C336.5,905.7,311.9,401.3,501.9-52.1C636.7-380.9,963.4-769,1247.3-940.5c69.4-42.9,302.3-130.7,571.9-220.6l453.4-149.1v-1296.9c0-1427.6,0-1419.4,126.6-1658.4c120.5-226.7,406.4-449.3,651.5-504.5c200.1-47,439.1-10.2,639.2,96c132.8,69.5,355.4,292.1,424.8,424.8c114.4,214.5,118.4,255.3,118.4,1329.6c0,543.3,4.1,986.4,10.2,986.4c12.3,0,2934.8-921.1,3218.7-1013c153.2-49,157.3-53.1,171.6-126.6c8.2-40.8,36.8-120.5,65.4-177.7c234.9-473.8,757.7-708.7,1221.3-551.4c236.9,79.7,494.2,308.4,604.5,537.1C9629-3052.3,9625-3215.7,9625,579c0,3880.4,6.1,3655.8-118.5,3888.6c-30.6,57.2-114.4,163.4-187.9,236.9C9061.3,4963.8,8722.2,5063.9,8385.3,4982.2z M8883.6,4345c30.6-22.5,73.5-73.5,91.9-112.3c34.7-65.3,36.8-279.8,36.8-3643.5c0-3496.5-2-3576.1-40.8-3661.9c-53.1-116.4-159.3-167.5-357.4-167.5c-198.1,0-304.3,51.1-357.4,167.5c-38.8,85.8-40.8,165.4-40.8,3661.9c0,3420.9,2,3578.2,36.8,3645.6c22.5,44.9,71.5,89.9,128.7,118.5c77.6,40.8,114.4,47,267.6,40.8C8789.6,4389.9,8836.6,4379.7,8883.6,4345z M7603,589.2c0-1823.8-8.2-2930.7-18.4-2930.7c-26.5,0-5755.3,1805.4-5900.3,1858.5c-316.6,116.4-580,412.6-667.8,745.4c-38.8,149.1-40.8,494.2-2,633.1c75.6,283.9,292.1,561.6,539.2,690.3c85.8,44.9,704.6,249.2,1668.6,553.5c843.5,265.5,2166.9,682.1,2941,929.3c776.1,245.1,1415.3,447.3,1425.5,449.3C7596.9,3517.9,7603,2200.5,7603,589.2z M3283.5-1626.8c177.7-55.1,326.8-102.1,330.9-102.1c4.1,0,6.1-498.3,6.1-1106.9c0-1015-4.1-1115.1-36.8-1178.4c-63.3-126.6-126.6-155.2-330.9-155.2s-267.5,28.6-330.9,155.2c-34.7,63.3-36.8,167.5-36.8,1290.8c0,1153.9,2,1221.3,36.8,1211.1C2940.4-1518.5,3103.8-1569.6,3283.5-1626.8z"/></g></g>
</svg>