<?xml version="1.0" encoding="utf-8"?>
<!-- Svg Vector Icons : http://www.onlinewebfonts.com/icon -->
<!DOCTYPE svg PUBLIC "-//W3C//DTD SVG 1.1//EN" "http://www.w3.org/Graphics/SVG/1.1/DTD/svg11.dtd">
<svg version="1.1" xmlns="http://www.w3.org/2000/svg" xmlns:xlink="http://www.w3.org/1999/xlink" x="0px" y="0px" viewBox="0 0 1000 1000" enable-background="new 0 0 1000 1000" xml:space="preserve">
<metadata> Svg Vector Icons : http://www.onlinewebfonts.com/icon </metadata>
<g><g transform="translate(0.000000,511.000000) scale(0.100000,-0.100000)"><path d="M1783.9,4117.3c-747.7-126.9-1368.5-665-1595.4-1383.9c-73-232.6-96.1-413.3-86.5-701.6c5.8-219.1,13.4-271,48.1-336.4c51.9-98,163.4-203.7,274.9-261.4l86.5-46.1h1037.9c1014.9,0,1039.9,0,1126.4,40.4c123,57.7,223,151.8,282.5,265.2c42.3,84.6,51.9,130.7,59.6,328.7c7.7,130.7,23.1,249.9,36.5,272.9C3114,2400.9,3042.9,2397,4990,2397c1975.9,0,1877.9,5.8,1941.3-115.3c19.2-38.4,28.8-113.4,28.8-246c0-123,11.5-221,30.7-278.7c42.3-123,174.9-267.2,299.9-322.9l101.9-46.1H8421c963,0,1034.1,1.9,1122.5,36.5c115.3,44.2,226.8,142.2,296,259.5c48,82.6,51.9,107.6,59.6,347.9c9.6,401.7-53.8,693.9-221,1018.7c-297.9,574.7-834.2,963-1476.2,1066.8C7955.8,4157.7,2020.3,4155.8,1783.9,4117.3z M8263.3,3723.3c317.1-76.9,582.4-232.6,822.7-484.4c297.9-313.3,449.8-707.3,449.8-1162.9c0-171.1-15.4-224.9-84.6-278.7c-36.5-30.7-119.2-34.6-1005.3-34.6c-682.3,0-978.3,5.8-1013,21.2c-78.8,36.5-107.6,126.9-107.6,328.7c0,115.3-11.5,213.3-30.7,271c-42.3,123-176.9,269.1-311.4,334.5l-109.6,53.8H4990H3106.3l-105.7-50c-134.6-63.4-242.2-171.1-305.6-305.6c-44.2-94.2-50-130.7-50-324.8l-1.9-217.2l-61.5-55.7l-61.5-55.8h-968.7H584.5l-50,46.1c-69.2,63.4-78.8,117.2-65.4,365.2c25,432.5,165.3,772.7,444,1062.9c236.4,249.9,503.6,409.4,813.1,484.4c144.2,36.5,263.3,38.4,3263.7,38.4C8036.5,3761.7,8107.7,3759.8,8263.3,3723.3z"/><path d="M3115.9,1480.2C2354.8,82.8,1489.8-1074.3,730.6-1712.5l-167.2-138.4L540.3-2070c-32.7-288.3-15.4-682.4,36.5-884.2c67.3-257.5,161.5-422.9,347.9-609.3c126.9-128.8,196.1-180.7,307.5-234.5c284.5-138.4,5.8-128.8,3778.9-128.8c3398.3,0,3406,0,3536.7,40.4c203.8,61.5,367.1,161.5,528.6,322.9c167.2,167.2,282.6,371,347.9,615.1c50,194.1,67.3,617,34.6,888c-28.8,226.8,0,184.5-328.7,474.7C8428.7-972.4,7582.9,188.5,6846.7,1547.4l-159.5,292.2h-296h-296v-365.2v-365.2H4999.6H3904v365.2v365.2h-296h-296L3115.9,1480.2z M4999.6,744h1460.8l3.8,351.7l5.8,349.8l113.4-201.8c753.5-1349.3,1555-2437.2,2266.2-3077.3c119.2-105.7,223-211.4,232.6-234.5c9.6-23.1,17.3-176.8,17.3-340.2c0-242.2-7.7-324.8-40.4-447.9c-82.7-299.9-236.4-501.7-486.3-632.4l-123-63.4H5009.2H1568.6l-130.7,61.5c-161.5,76.9-317.1,223-396,371c-121.1,226.8-176.8,599.7-140.3,920.7l19.2,163.4l132.6,113.4C1757-1308.8,2579.7-228.6,3260.1,974.7c94.2,163.4,192.2,336.4,219.1,384.4l50,86.5l5.8-349.8l3.8-351.7H4999.6z"/><path d="M4770.9-84.4c-384.4-50-765-255.6-991.8-534.3c-426.7-530.5-388.3-1224.4,96.1-1704.9c784.2-776.5,2216.2-497.8,2571.8,501.7c209.5,586.3-73,1247.5-663.1,1558.9c-180.7,94.2-321,140.3-534.3,171.1C5051.5-61.3,4959.2-59.4,4770.9-84.4z"/></g></g>
</svg>